<svg width="651" height="650" viewBox="0 0 651 650" fill="none" xmlns="http://www.w3.org/2000/svg">
<path d="M468.399 467.699V633.599C468.399 642.399 461.299 649.499 452.499 649.499H16.5992C7.79921 649.499 0.699219 642.399 0.699219 633.599V197.599C0.699219 188.799 7.79921 181.699 16.5992 181.699H182.399V451.799C182.399 460.599 189.499 467.699 198.299 467.699H468.399Z" fill="#4C00FF"/>
<path d="M650.198 233.8C650.198 373.4 568.898 467.5 468.398 467.8V292C468.398 286.9 466.398 282.1 462.798 278.5L371.598 187.3C367.998 183.7 363.198 181.7 358.098 181.7H182.398V15.9C182.398 7.1 189.498 0 198.298 0H444.298C560.798 0 650.198 93.9 650.198 233.8Z" fill="#FF5252"/>
<path d="M462.798 278.499C466.398 282.099 468.398 286.899 468.398 291.999V467.799H198.298C189.498 467.799 182.398 460.699 182.398 451.899V181.699H358.198C363.298 181.699 368.098 183.699 371.698 187.299L462.798 278.499Z" fill="black"/>
</svg>
